<?xml version="1.0"?>
<svg xmlns="http://www.w3.org/2000/svg" xmlns:xlink="http://www.w3.org/1999/xlink" xmlns:svgjs="http://svgjs.com/svgjs" version="1.1" width="512" height="512" x="0" y="0" viewBox="0 0 512 512" style="enable-background:new 0 0 512 512" xml:space="preserve" class=""><g><g xmlns="http://www.w3.org/2000/svg"><g><g><g><path d="m464 384h-416c-17.673 0-32-14.327-32-32v-256c0-17.673 14.327-32 32-32h416c17.673 0 32 14.327 32 32v256c0 17.673-14.327 32-32 32z" fill="#463c4b" data-original="#463c4b" style=""/></g></g><g><g><path d="m432 384h-384c-17.673 0-32-14.327-32-32v-256c0-17.673 14.327-32 32-32h384c17.673 0 32 14.327 32 32v256c0 17.673-14.327 32-32 32z" fill="#555a6e" data-original="#555a6e" style=""/></g></g><g><g><path d="m424 352h-368c-4.418 0-8-3.582-8-8v-240c0-4.418 3.582-8 8-8h368c4.418 0 8 3.582 8 8v240c0 4.418-3.582 8-8 8z" fill="#d7e6f0" data-original="#d7e6f0" style=""/></g></g></g><g><g><g><path d="m216 384h72v32h-72z" fill="#463c4b" data-original="#463c4b" style=""/></g></g><g><g><path d="m216 400h48v16h-48z" fill="#555a6e" data-original="#555a6e" style=""/></g></g><g><g><path d="m368 448h-232v-16c0-8.837 7.163-16 16-16h200c8.837 0 16 7.163 16 16z" fill="#555a6e" data-original="#555a6e" style=""/></g></g><g><g><path d="m368 448h-48v-16c0-8.837 7.163-16 16-16h16c8.837 0 16 7.163 16 16z" fill="#463c4b" data-original="#463c4b" style=""/></g></g></g><g><path d="m223.154 224c10.39-10.172 16.846-24.346 16.846-40 0-30.879-25.122-56-56-56h-56c-8.836 0-16 7.163-16 16s7.164 16 16 16h56c13.233 0 24 10.766 24 24s-10.767 24-24 24h-56c-8.836 0-16 7.163-16 16s7.164 16 16 16h56c13.233 0 24 10.766 24 24s-10.767 24-24 24h-56c-8.836 0-16 7.163-16 16s7.164 16 16 16h56c30.878 0 56-25.121 56-56 0-15.654-6.456-29.828-16.846-40z" fill="#e1322d" data-original="#e1322d" style="" class=""/><path d="m191.154 224c10.39-10.172 16.846-24.346 16.846-40 0-30.879-25.122-56-56-56h-56c-8.836 0-16 7.163-16 16s7.164 16 16 16h56c13.233 0 24 10.766 24 24s-10.767 24-24 24h-56c-8.836 0-16 7.163-16 16s7.164 16 16 16h56c13.233 0 24 10.766 24 24s-10.767 24-24 24h-56c-8.836 0-16 7.163-16 16s7.164 16 16 16h56c30.878 0 56-25.121 56-56 0-15.654-6.456-29.828-16.846-40z" fill="#f04b37" data-original="#f04b37" style=""/><g><g><path d="m312 320h-56c-8.836 0-16-7.163-16-16v-160c0-8.837 7.164-16 16-16h56c30.878 0 56 25.121 56 56v80c0 30.879-25.122 56-56 56zm-40-32h40c13.234 0 24-10.766 24-24v-80c0-13.234-10.766-24-24-24h-40z" fill="#4182c3" data-original="#4182c3" style="" class=""/></g></g><g><g><path d="m344 320h-56c-8.836 0-16-7.163-16-16v-160c0-8.837 7.164-16 16-16h56c30.878 0 56 25.121 56 56v80c0 30.879-25.122 56-56 56zm-40-32h40c13.234 0 24-10.766 24-24v-80c0-13.234-10.766-24-24-24h-40z" fill="#4cb435" data-original="#64afe1" style="" class=""/></g></g></g></g></g></svg>
