<svg id="color_1_" enable-background="new 0 0 24 24" height="512" viewBox="0 0 24 24" width="512" xmlns="http://www.w3.org/2000/svg"><g><path d="m20 6v12c0 1.1-.9 2-2 2h-12c-.31 0-.6-.07-.86-.2-.67-.32-1.14-1.01-1.14-1.8v-12c0-1.1.9-2 2-2h12c1.1 0 2 .9 2 2z" fill="#fafafa"/><path d="m12 5h-7v13c0 .551.448 1 1 1h6z" fill="#dadada"/><g><path d="m20 13.94v4.06c0 1.1-.9 2-2 2h-12c-.31 0-.6-.07-.86-.2l9.12-9.12c.681-.68 1.8-.68 2.48 0z" fill="#388e3c"/><path d="m15.491 10.17c-.447.002-.893.172-1.231.51l-9.12 9.12c.26.13.55.2.86.2h9.491z" fill="#317c34"/></g><g><path d="m14.06 20h-8.06c-.31 0-.6-.07-.86-.2-.67-.32-1.14-1.01-1.14-1.8v-2.06l1.76-1.761c.681-.68 1.8-.68 2.481 0z" fill="#4caf50"/><path d="m7 13.67c-.45 0-.9.17-1.24.51l-1.76 1.76v2.06c0 .79.47 1.48 1.14 1.8.26.13.55.2.86.2h1.077v-6.328c-.026-.001-.051-.002-.077-.002z" fill="#429846"/></g><path d="m8 7c-1.103 0-2 .897-2 2s.897 2 2 2 2-.897 2-2-.897-2-2-2z" fill="#ffc107"/><path d="m8 7c-1.103 0-2 .897-2 2s.897 2 2 2z" fill="#dea806"/></g><path d="m20 24c-.553 0-1-.447-1-1v-17c0-.551-.448-1-1-1h-17c-.553 0-1-.448-1-1s.447-1 1-1h17c1.654 0 3 1.346 3 3v17c0 .553-.447 1-1 1z" fill="#607d8b"/><path d="m23.25 21h-17.25c-1.654 0-3-1.346-3-3v-17c0-.552.447-1 1-1s1 .448 1 1v17c0 .551.448 1 1 1h17.25c.553 0 1 .447 1 1s-.447 1-1 1z" fill="#607d8b"/><g fill="#546d79"><path d="m3 3h-2c-.553 0-1 .448-1 1s.447 1 1 1h2zm9 0h-7v2h7z"/><path d="m4 0c-.553 0-1 .448-1 1v2 2 13c0 1.654 1.346 3 3 3h6v-2h-6c-.552 0-1-.449-1-1v-13-2-2c0-.552-.447-1-1-1z"/></g></svg>