<?xml version="1.0"?>
<svg xmlns="http://www.w3.org/2000/svg" xmlns:xlink="http://www.w3.org/1999/xlink" xmlns:svgjs="http://svgjs.com/svgjs" version="1.1" width="512" height="512" x="0" y="0" viewBox="0 0 512 512" style="enable-background:new 0 0 512 512" xml:space="preserve" class=""><g><linearGradient xmlns="http://www.w3.org/2000/svg" id="SVGID_1_" gradientUnits="userSpaceOnUse" x1="256" x2="256" y1="481.016" y2="30.984"><stop stop-opacity="1" stop-color="#1b2b15" offset="0"/><stop stop-opacity="1" stop-color="#69e52a" offset="0.8223938223938224"/></linearGradient><g xmlns="http://www.w3.org/2000/svg"><g><g><path d="m242 121.405v-75.396c0-5.625-3.135-10.767-8.145-13.33-5.01-2.622-11.016-2.168-15.586 1.128l-212 150c-3.925 2.812-6.269 7.353-6.269 12.202s2.344 9.39 6.27 12.202l212 150c4.57 3.267 10.576 3.677 15.586 1.128 5.01-2.563 8.145-7.705 8.145-13.33v-74.575c110.801 6.387 207.51 82.969 238.271 190.62l2.314 8.086c2.072 7.3 9.262 11.777 16.494 10.723 7.412-1.04 12.92-7.368 12.92-14.854v-60c0-152.109-119.795-276.782-270-284.604z" fill="url(#SVGID_1_)" data-original="url(#SVGID_1_)" style=""/></g></g></g></g></svg>
